<svg width="90" height="90" viewBox="0 0 90 90" fill="none" xmlns="http://www.w3.org/2000/svg">
<path fill-rule="evenodd" clip-rule="evenodd" d="M30 22.5C30 14.2157 36.7157 7.5 45 7.5C53.2843 7.5 60 14.2157 60 22.5V41.25C60 49.5343 53.2843 56.25 45 56.25C36.7157 56.25 30 49.5343 30 41.25V22.5ZM45 15C40.8579 15 37.5 18.3579 37.5 22.5V41.25C37.5 45.3921 40.8579 48.75 45 48.75C49.1421 48.75 52.5 45.3921 52.5 41.25V22.5C52.5 18.3579 49.1421 15 45 15Z" fill="#0226A8"/>
<path d="M18.75 37.5C20.8211 37.5 22.5 39.1789 22.5 41.25C22.5 53.6764 32.5736 63.75 45 63.75C57.4264 63.75 67.5 53.6764 67.5 41.25C67.5 39.1789 69.1789 37.5 71.25 37.5C73.3211 37.5 75 39.1789 75 41.25C75 56.5486 63.5487 69.1725 48.75 71.0179V78.75C48.75 80.8211 47.0711 82.5 45 82.5C42.9289 82.5 41.25 80.8211 41.25 78.75V71.0179C26.4513 69.1725 15 56.5486 15 41.25C15 39.1789 16.6789 37.5 18.75 37.5Z" fill="#0226A8"/>
</svg>
